<svg width="34" height="34" viewBox="0 0 34 34" fill="none" xmlns="http://www.w3.org/2000/svg">
<path d="M1 17C1 9.45753 1 5.68629 3.34315 3.34315C5.68629 1 9.45753 1 17 1C24.5425 1 28.3137 1 30.6569 3.34315C33 5.68629 33 9.45753 33 17C33 24.5425 33 28.3137 30.6569 30.6569C28.3137 33 24.5425 33 17 33C9.45753 33 5.68629 33 3.34315 30.6569C1 28.3137 1 24.5425 1 17Z" stroke="black" stroke-width="2"/>
<path d="M20.7986 18.365C20.7986 17.8595 20.872 17.3458 21.0187 16.824C21.1655 16.3022 21.3693 15.8211 21.6303 15.3808C21.8912 14.9323 22.201 14.545 22.5598 14.2189C22.9267 13.8927 23.3262 13.6685 23.7584 13.5462C24.2639 13.4076 24.7042 13.3668 25.0793 13.4239C25.4625 13.4728 25.7846 13.5788 26.0455 13.7419C26.3146 13.8968 26.5266 14.0803 26.6815 14.2923C26.8364 14.5043 26.9424 14.6959 26.9995 14.8671C27.1055 15.1851 27.1136 15.4093 27.0239 15.5398C26.9424 15.6702 26.8405 15.7436 26.7182 15.7599C26.6366 15.7681 26.5551 15.7722 26.4736 15.7722C26.4002 15.7722 26.3227 15.7559 26.2412 15.7232C26.1678 15.6906 26.0985 15.6376 26.0333 15.5642C25.968 15.4827 25.9069 15.3645 25.8498 15.2096C25.8172 15.1117 25.756 15.022 25.6663 14.9405C25.5767 14.8589 25.4707 14.7937 25.3484 14.7448C25.2342 14.6877 25.1119 14.647 24.9814 14.6225C24.851 14.598 24.7246 14.598 24.6023 14.6225C24.2435 14.6877 23.9051 14.8304 23.5872 15.0506C23.2773 15.2626 23.0042 15.5235 22.7677 15.8333C22.5312 16.135 22.3437 16.4775 22.2051 16.8607C22.0746 17.2358 22.0094 17.619 22.0094 18.0104C22.0094 18.4262 22.0665 18.8013 22.1806 19.1356C22.3029 19.4699 22.4701 19.7552 22.6821 19.9917C22.9022 20.22 23.1672 20.3994 23.4771 20.5299C23.7869 20.6522 24.1334 20.7133 24.5167 20.7133C24.8673 20.7133 25.1364 20.644 25.3239 20.5054C25.5114 20.3586 25.6949 20.1589 25.8743 19.9061C26.0373 19.6696 26.2004 19.4576 26.3635 19.2701C26.5266 19.0744 26.7141 18.9399 26.9261 18.8665C27.0402 18.8257 27.1503 18.8298 27.2563 18.8787C27.3705 18.9276 27.4602 19.0336 27.5254 19.1967C27.6069 19.4006 27.6273 19.6126 27.5865 19.8327C27.5458 20.0529 27.4602 20.273 27.3297 20.4932C27.1992 20.7052 27.0321 20.909 26.8282 21.1047C26.6244 21.3004 26.392 21.4716 26.1311 21.6184C25.8783 21.7651 25.6052 21.8834 25.3117 21.9731C25.0263 22.0627 24.7368 22.1076 24.4433 22.1076C23.9867 22.1076 23.5382 22.0138 23.0979 21.8263C22.6658 21.6388 22.2785 21.3819 21.936 21.0558C21.5936 20.7215 21.3163 20.326 21.1043 19.8694C20.9005 19.4046 20.7986 18.9032 20.7986 18.365Z" fill="black"/>
<path d="M15.0471 22.0832C14.9167 22.075 14.8107 22.0302 14.7292 21.9487C14.6558 21.8671 14.6109 21.7693 14.5946 21.6551C14.5783 21.4676 14.5702 21.2637 14.5702 21.0436C14.5783 20.8153 14.5865 20.6074 14.5946 20.4198C14.5946 20.004 14.5946 19.5922 14.5946 19.1845C14.5946 18.7769 14.5905 18.3692 14.5824 17.9615C14.5742 17.1054 14.5375 16.2492 14.4723 15.3931C14.456 15.1974 14.4397 14.9976 14.4234 14.7938C14.4152 14.5818 14.3948 14.3779 14.3622 14.1822C14.3296 13.9866 14.3296 13.8357 14.3622 13.7297C14.403 13.6237 14.4642 13.5463 14.5457 13.4973C14.6272 13.4484 14.7251 13.4199 14.8392 13.4117C14.9534 13.3954 15.0635 13.3832 15.1695 13.375C15.4467 13.3587 15.6505 13.3546 15.781 13.3628C15.9114 13.371 15.993 13.3954 16.0256 13.4362C16.0664 13.4688 16.0664 13.5096 16.0256 13.5585C15.993 13.6074 15.9481 13.6604 15.8911 13.7175C15.8421 13.7664 15.7932 13.8194 15.7443 13.8765C15.6954 13.9336 15.675 13.9866 15.6831 14.0355C15.7973 15.2504 15.8625 16.4653 15.8788 17.6802C15.9033 18.8869 15.9033 20.0937 15.8788 21.3004C15.8788 21.3901 15.8544 21.4839 15.8054 21.5817C15.7647 21.6796 15.7035 21.7693 15.622 21.8508C15.5486 21.9242 15.463 21.9813 15.3651 22.022C15.2673 22.071 15.1613 22.0913 15.0471 22.0832ZM15.5731 22.1199C15.5404 22.1199 15.4874 22.1199 15.4141 22.1199C15.3407 22.1199 15.2673 22.1158 15.1939 22.1076C15.1205 22.0995 15.0512 22.0873 14.986 22.071C14.9208 22.0628 14.8718 22.0465 14.8392 22.022C14.7903 21.9813 14.7495 21.9446 14.7169 21.912C14.6843 21.8793 14.6598 21.8467 14.6435 21.8141C14.6272 21.7733 14.615 21.7244 14.6068 21.6673C14.6068 21.6103 14.6028 21.5369 14.5946 21.4472C14.5865 21.3086 14.6272 21.1822 14.7169 21.0681C14.8066 20.9539 14.9289 20.8968 15.0838 20.8968C15.1491 20.8968 15.2469 20.9294 15.3774 20.9947C15.5078 21.0599 15.6301 21.0925 15.7443 21.0925H15.7565C15.9604 21.0925 16.209 21.0884 16.5026 21.0803C16.8043 21.064 17.11 21.0395 17.4199 21.0069C17.7297 20.9661 18.0232 20.9091 18.3005 20.8357C18.5859 20.7541 18.8142 20.6441 18.9854 20.5054C19.0914 20.4239 19.177 20.3138 19.2422 20.1752C19.3075 20.0285 19.3319 19.8817 19.3156 19.7349C19.3156 19.6208 19.283 19.5148 19.2178 19.4169C19.1607 19.3191 19.0955 19.2253 19.0221 19.1356C18.8508 18.9155 18.6511 18.7361 18.4228 18.5975C18.2026 18.4589 17.9702 18.3529 17.7256 18.2795C17.481 18.1979 17.2283 18.1449 16.9673 18.1205C16.7146 18.096 16.474 18.0879 16.2457 18.096C15.9848 18.1042 15.7239 18.1409 15.463 18.2061C15.3978 18.2224 15.3325 18.2428 15.2673 18.2673C15.2021 18.2917 15.1409 18.3039 15.0838 18.3039C14.9534 18.3121 14.8555 18.2754 14.7903 18.1939C14.7332 18.1042 14.7047 18.0023 14.7047 17.8881C14.6884 17.7332 14.7292 17.5864 14.827 17.4478C14.933 17.301 15.0635 17.2195 15.2184 17.2032C15.2347 17.2032 15.251 17.2073 15.2673 17.2154C15.2918 17.2236 15.3121 17.2277 15.3284 17.2277C15.3692 17.2195 15.4181 17.2073 15.4752 17.191C15.5404 17.1665 15.5975 17.1461 15.6464 17.1298C15.7687 17.0972 15.8951 17.0768 16.0256 17.0687C16.156 17.0524 16.2906 17.036 16.4292 17.0197C16.7309 16.9953 17.0448 16.9994 17.371 17.032C17.6971 17.0646 18.0151 17.1339 18.3249 17.2399C18.6348 17.3377 18.9324 17.4763 19.2178 17.6557C19.5031 17.8351 19.7518 18.0675 19.9638 18.3529C20.0861 18.5078 20.1881 18.679 20.2696 18.8666C20.3511 19.0459 20.4001 19.2335 20.4164 19.4292C20.4571 19.8124 20.4041 20.1711 20.2574 20.5054C20.184 20.7011 20.078 20.8846 19.9394 21.0558C19.8008 21.2189 19.6418 21.3616 19.4624 21.4839C19.2341 21.647 18.9528 21.7733 18.6185 21.863C18.2923 21.9527 17.9458 22.018 17.5789 22.0587C17.2201 22.0995 16.8654 22.1199 16.5148 22.1199C16.1642 22.128 15.8503 22.128 15.5731 22.1199ZM16.0745 14.2923C15.9767 14.3005 15.887 14.3086 15.8054 14.3168C15.7321 14.3168 15.6587 14.3249 15.5853 14.3412C15.5201 14.3494 15.4508 14.3657 15.3774 14.3902C15.304 14.4065 15.2225 14.4309 15.1328 14.4636C15.0675 14.4799 14.9941 14.5125 14.9126 14.5614C14.8392 14.6103 14.7699 14.6307 14.7047 14.6225C14.5987 14.6144 14.5131 14.5492 14.4478 14.4269C14.3826 14.2964 14.3459 14.1619 14.3378 14.0233C14.3296 13.8765 14.3419 13.7623 14.3745 13.6808C14.4071 13.5911 14.4519 13.5218 14.509 13.4729C14.5742 13.424 14.6517 13.3913 14.7414 13.375C14.8311 13.3506 14.9248 13.3302 15.0227 13.3139C15.1368 13.2894 15.2306 13.269 15.304 13.2527C15.3855 13.2364 15.463 13.2242 15.5364 13.216C15.6179 13.1997 15.6994 13.1875 15.781 13.1793C15.8707 13.163 15.9767 13.1508 16.099 13.1426C16.3844 13.1263 16.6575 13.1223 16.9184 13.1304C17.1793 13.1386 17.4443 13.1753 17.7134 13.2405C17.9254 13.2976 18.1374 13.371 18.3494 13.4606C18.5695 13.5422 18.7693 13.6563 18.9487 13.8031C19.1362 13.9417 19.2952 14.1211 19.4257 14.3412C19.5561 14.5614 19.6377 14.8345 19.6703 15.1607C19.6948 15.4705 19.6825 15.7478 19.6336 15.9924C19.5928 16.2288 19.5154 16.4449 19.4012 16.6406C19.2952 16.8281 19.1607 16.9953 18.9976 17.142C18.8427 17.2888 18.6674 17.4233 18.4717 17.5457C18.2434 17.7006 17.9743 17.7984 17.6645 17.8392C17.3628 17.88 17.0611 17.9085 16.7594 17.9248C16.4659 17.933 16.1927 17.9574 15.94 17.9982C15.6872 18.0308 15.4956 18.1164 15.3651 18.255C15.3244 18.3039 15.2754 18.3121 15.2184 18.2795C15.1695 18.2387 15.1246 18.1816 15.0838 18.1083C15.0431 18.0349 15.0064 17.9493 14.9738 17.8514C14.9411 17.7536 14.9248 17.668 14.9248 17.5946C14.9085 17.3989 14.9248 17.297 14.9738 17.2888C15.0308 17.2725 15.1409 17.2725 15.304 17.2888C15.3284 17.2888 15.3448 17.2766 15.3529 17.2521C15.3692 17.2195 15.3855 17.1869 15.4018 17.1543C15.4181 17.1135 15.4304 17.085 15.4385 17.0687C15.4548 17.0524 15.4752 17.0564 15.4997 17.0809C15.7035 17.089 15.9359 17.0768 16.1968 17.0442C16.4659 17.0034 16.7023 16.9586 16.9062 16.9097C17.0122 16.8852 17.1426 16.8526 17.2976 16.8118C17.4606 16.771 17.6196 16.7099 17.7746 16.6284C17.9376 16.5387 18.0885 16.4245 18.2271 16.2859C18.3657 16.1391 18.4635 15.9598 18.5206 15.7478C18.5451 15.6825 18.5492 15.5928 18.5329 15.4787C18.5002 15.1933 18.3739 14.9691 18.1537 14.806C17.9417 14.6429 17.7012 14.5206 17.4321 14.4391C17.1712 14.3576 16.9103 14.3127 16.6493 14.3046C16.3966 14.2882 16.205 14.2842 16.0745 14.2923Z" fill="black"/>
<path d="M12.946 19.3069C12.946 19.4455 12.9338 19.5433 12.9093 19.6004C12.893 19.6493 12.8522 19.682 12.787 19.6983C12.6892 19.7146 12.5546 19.7227 12.3834 19.7227C12.2203 19.7146 12.0899 19.7064 11.992 19.6983C11.7556 19.6983 11.5232 19.6942 11.2949 19.686C11.0747 19.6779 10.8505 19.6779 10.6222 19.686C10.3857 19.686 10.1493 19.6901 9.91283 19.6983C9.67637 19.6983 9.41545 19.7064 9.13007 19.7227C8.93439 19.7309 8.77947 19.7431 8.66531 19.7594C8.55932 19.7757 8.45332 19.7798 8.34732 19.7717C8.24132 19.7635 8.18017 19.7064 8.16386 19.6004C8.15571 19.4863 8.15978 19.315 8.17609 19.0867C8.18424 18.8666 8.22501 18.7321 8.2984 18.6831C8.37178 18.6261 8.44924 18.5894 8.53078 18.5731C9.19123 18.4589 9.85575 18.3978 10.5244 18.3896C11.193 18.3733 11.8575 18.3855 12.5179 18.4263C12.5669 18.4263 12.6158 18.4508 12.6647 18.4997C12.7218 18.5486 12.7707 18.6138 12.8115 18.6954C12.8604 18.7687 12.8971 18.8584 12.9215 18.9644C12.946 19.0704 12.9542 19.1846 12.946 19.3069ZM7.52787 22.0955C7.42187 22.0547 7.33626 21.9895 7.27103 21.8998C7.2058 21.8101 7.15688 21.7122 7.12426 21.6062C7.09165 21.4921 7.07126 21.3779 7.06311 21.2638C7.06311 21.1496 7.07534 21.0436 7.0998 20.9458C7.23026 20.3016 7.37295 19.686 7.52787 19.099C7.69095 18.5119 7.88256 17.933 8.10271 17.3622C8.32286 16.7833 8.5797 16.2003 8.87323 15.6133C9.16677 15.018 9.51738 14.3943 9.92506 13.742C9.95768 13.6931 9.99844 13.636 10.0474 13.5708C10.0963 13.5055 10.1493 13.4444 10.2064 13.3873C10.2634 13.3302 10.3205 13.2813 10.3776 13.2405C10.4347 13.1998 10.4836 13.1794 10.5244 13.1794C10.6467 13.1794 10.7608 13.2487 10.8668 13.3873C10.9728 13.5178 11.0584 13.636 11.1237 13.742C11.5313 14.3943 11.882 15.018 12.1755 15.6133C12.469 16.2003 12.7259 16.7833 12.946 17.3622C13.1662 17.933 13.3537 18.5119 13.5086 19.099C13.6717 19.686 13.8185 20.3016 13.9489 20.9458C13.9734 21.0436 13.9815 21.1496 13.9734 21.2638C13.9734 21.3779 13.9571 21.4921 13.9245 21.6062C13.8918 21.7122 13.8429 21.8101 13.7777 21.8998C13.7125 21.9895 13.6268 22.0547 13.5208 22.0955C13.4067 22.1444 13.2966 22.1444 13.1906 22.0955C13.0846 22.0465 12.999 21.965 12.9338 21.8508C12.8849 21.7693 12.8441 21.6715 12.8115 21.5573C12.7789 21.435 12.7462 21.3086 12.7136 21.1782C12.681 21.0477 12.6525 20.9172 12.628 20.7868C12.6036 20.6482 12.575 20.5218 12.5424 20.4076C12.4364 20.0244 12.3141 19.6208 12.1755 19.1968C12.0369 18.7728 11.886 18.3488 11.723 17.9248C11.568 17.5008 11.3968 17.085 11.2093 16.6773C11.0217 16.2696 10.822 15.8946 10.61 15.5521C10.5937 15.5358 10.5774 15.5154 10.561 15.491C10.5529 15.4665 10.5407 15.442 10.5244 15.4176C10.3042 15.7519 10.0963 16.1269 9.9006 16.5428C9.70491 16.9586 9.52145 17.3908 9.35022 17.8392C9.179 18.2795 9.02408 18.7239 8.88546 19.1724C8.74685 19.6127 8.62047 20.0244 8.50632 20.4076C8.4737 20.5218 8.44516 20.6482 8.4207 20.7868C8.39624 20.9172 8.3677 21.0477 8.33509 21.1782C8.30247 21.3086 8.26986 21.435 8.23724 21.5573C8.20463 21.6715 8.16386 21.7693 8.11494 21.8508C8.04971 21.965 7.96409 22.0465 7.8581 22.0955C7.7521 22.1444 7.64202 22.1444 7.52787 22.0955Z" fill="black"/>
</svg>
