<svg width="28" height="28" viewBox="0 0 28 28" fill="none" xmlns="http://www.w3.org/2000/svg">
<path d="M2.91675 14.0001C2.91675 8.77535 2.91675 6.16298 4.53986 4.53986C6.16298 2.91675 8.77535 2.91675 14.0001 2.91675C19.2248 2.91675 21.8372 2.91675 23.4603 4.53986C25.0834 6.16298 25.0834 8.77535 25.0834 14.0001C25.0834 19.2248 25.0834 21.8372 23.4603 23.4603C21.8372 25.0834 19.2248 25.0834 14.0001 25.0834C8.77535 25.0834 6.16298 25.0834 4.53986 23.4603C2.91675 21.8372 2.91675 19.2248 2.91675 14.0001Z" stroke="#141B34" stroke-width="1.5"/>
<path d="M9.3335 16.0417C9.3335 16.0417 11.2002 17.1063 12.1335 18.6667C12.1335 18.6667 14.9335 12.5417 18.6668 10.5" stroke="#141B34" stroke-width="1.5" stroke-linecap="round" stroke-linejoin="round"/>
</svg>
