<svg width="64" height="64" viewBox="0 0 64 64" fill="none" xmlns="http://www.w3.org/2000/svg">
<g clip-path="url(#clip0_136_343)">
<ellipse cx="15" cy="33.5" rx="15" ry="15.5" transform="rotate(180 15 33.5)" fill="#CFFFC2"/>
<ellipse cx="56.2258" cy="12.5" rx="8.22581" ry="8.5" transform="rotate(180 56.2258 12.5)" fill="#CFFFC2"/>
<path d="M25.3333 26.6666C25.3333 33.7777 24 40.8888 18.6666 48M38.6666 26.6666C38.6666 33.7777 40 40.8888 45.3333 48" stroke="black" stroke-width="1.5" stroke-linecap="round" stroke-linejoin="round"/>
<path d="M41.3333 14.4761C41.3333 16.4997 40.6622 18.3697 39.5261 19.8843C38.607 21.1096 37.6906 21.3333 36.1876 21.3333H27.8123C26.3093 21.3333 25.3929 21.1096 24.4738 19.8843C23.3377 18.3697 22.6666 16.4997 22.6666 14.4761C22.6666 9.42665 26.8453 5.33325 32 5.33325C37.1546 5.33325 41.3333 9.42665 41.3333 14.4761Z" stroke="black" stroke-width="1.5" stroke-linecap="round" stroke-linejoin="round"/>
<path d="M21.3333 26.6666H42.6666" stroke="black" stroke-width="1.5" stroke-linecap="round" stroke-linejoin="round"/>
<path d="M11.213 55.0636L11.2685 54.9212C13.5111 49.1726 15.2715 47.9999 21.6583 47.9999H42.3417C48.7285 47.9999 50.4888 49.1726 52.7314 54.9212L52.7869 55.0636C53.9168 57.96 53.4074 58.6665 50.1895 58.6665H13.8104C10.5925 58.6665 10.0831 57.96 11.213 55.0636Z" stroke="black" stroke-width="1.5" stroke-linecap="round" stroke-linejoin="round"/>
</g>
<defs>
<clipPath id="clip0_136_343">
<rect width="64" height="64" fill="white"/>
</clipPath>
</defs>
</svg>
