<svg width="34" height="34" viewBox="0 0 34 34" fill="none" xmlns="http://www.w3.org/2000/svg">
<path d="M4.19995 17C4.19995 10.966 4.19995 7.94905 6.07447 6.07453C7.94898 4.20001 10.966 4.20001 17 4.20001C23.0339 4.20001 26.0509 4.20001 27.9254 6.07453C29.8 7.94905 29.8 10.966 29.8 17C29.8 23.034 29.8 26.051 27.9254 27.9255C26.0509 29.8 23.0339 29.8 17 29.8C10.966 29.8 7.94898 29.8 6.07447 27.9255C4.19995 26.051 4.19995 23.034 4.19995 17Z" stroke="black" stroke-width="2" stroke-linejoin="round"/>
<path d="M10.1716 23.8284C11.3431 25 13.2288 25 17 25C18.2637 25 19.3157 25 20.2 24.9559L24.9559 20.2C25 19.3157 25 18.2637 25 17C25 13.2288 25 11.3431 23.8284 10.1716C22.6569 9 20.7712 9 17 9C13.2288 9 11.3431 9 10.1716 10.1716C9 11.3431 9 13.2288 9 17C9 20.7712 9 22.6569 10.1716 23.8284Z" stroke="black" stroke-width="2" stroke-linejoin="round"/>
<path d="M10.6 1V4.2M23.4 1V4.2M17 1V4.2M10.6 29.8V33M17 29.8V33M23.4 29.8V33M33 23.4H29.8M4.2 10.6H1M4.2 23.4H1M4.2 17H1M33 10.6H29.8M33 17H29.8" stroke="black" stroke-width="2" stroke-linecap="round" stroke-linejoin="round"/>
</svg>
