<svg width="64" height="64" viewBox="0 0 64 64" fill="none" xmlns="http://www.w3.org/2000/svg">
<ellipse cx="49" cy="48.5" rx="15" ry="15.5" fill="#CFFFC2"/>
<ellipse cx="8.22581" cy="26.5" rx="8.22581" ry="8.5" fill="#CFFFC2"/>
<path d="M32.001 28.6573C31.9199 28.6248 31.8365 28.5947 31.7508 28.5692L18.8488 24.7181C17.6566 24.3624 16.6301 23.5954 15.95 22.5538L9.11781 12.0872C8.51766 11.1684 7.51548 10.6667 6.49129 10.6667C5.92706 10.6667 5.35704 10.8185 4.84378 11.136C3.29244 12.0953 2.88577 14.1715 3.95978 15.6452L11.8857 26.5289C12.5542 27.4454 12.8797 28.5669 12.8067 29.6977L12.392 36.1753C12.2831 37.89 12.7013 39.5966 13.5923 41.0646L14.226 42.1085L17.7423 47.906L21.5378 54.1624C22.1276 55.1344 23.1552 55.6593 24.1991 55.6593C24.8618 55.6593 25.5315 55.4484 26.1004 55.0058C27.3887 54.0071 27.6865 52.1824 26.7816 50.8268L20.8485 41.9254C20.2147 40.9765 19.9181 39.8411 20.0062 38.7034L20.3781 33.8628C20.4766 32.5826 21.6966 31.6962 22.9444 31.9963L30.3443 33.7829C30.5586 33.835 30.7718 33.8593 30.9815 33.8593C31.3372 33.8593 31.6824 33.7886 32.001 33.6577" stroke="black" stroke-width="1.5" stroke-miterlimit="10"/>
<path d="M14.2259 42.1084L8.2661 51.9216C7.47362 53.2262 7.87913 54.9247 9.17443 55.731C10.4419 56.52 12.1057 56.169 12.9468 54.9363L17.7422 47.9048" stroke="black" stroke-width="1.5" stroke-miterlimit="10"/>
<path d="M26.4122 18.1588C27.1632 15.4401 25.8874 12.7156 23.5628 12.0736C21.2381 11.4315 18.7449 13.115 17.994 15.8337C17.2431 18.5525 18.5188 21.277 20.8435 21.919C23.1681 22.5611 25.6613 20.8776 26.4122 18.1588Z" stroke="black" stroke-width="1.5" stroke-miterlimit="10"/>
<path d="M60.041 15.6452L52.114 26.5289C51.4466 27.4454 51.1211 28.5669 51.1929 29.6977L51.6077 36.1753C51.7177 37.89 51.2995 39.5966 50.4085 41.0646L49.7748 42.1085L46.2585 47.906L42.4618 54.1624C41.8732 55.1344 40.8456 55.6593 39.8017 55.6593C39.139 55.6593 38.4693 55.4484 37.8993 55.0058C36.6121 54.0071 36.3143 52.1824 37.2192 50.8268L43.1523 41.9254C43.7861 40.9765 44.0827 39.8411 43.9946 38.7034L43.6227 33.8628C43.5242 32.5826 42.3042 31.6962 41.0564 31.9963L33.6565 33.7829C33.4422 33.835 33.229 33.8593 33.0193 33.8593C32.6636 33.8593 32.3184 33.7886 32.0009 33.6577C32.8351 33.3159 33.4816 32.564 33.6426 31.6012C33.8512 30.3465 33.1572 29.1288 32.0009 28.6573C32.082 28.6237 32.1643 28.5947 32.25 28.5692L45.152 24.7181C46.3431 24.3624 47.3707 23.5954 48.0508 22.5538L54.883 12.0872C55.4831 11.1684 56.4853 10.6667 57.5095 10.6667C58.0726 10.6667 58.6438 10.8185 59.157 11.136C60.7072 12.0953 61.1139 14.1715 60.041 15.6452Z" stroke="black" stroke-width="1.5" stroke-miterlimit="10"/>
<path d="M49.7747 42.1084L55.7345 51.9216C56.527 53.2262 56.1215 54.9247 54.8262 55.731C53.5587 56.52 51.8949 56.169 51.0538 54.9363L46.2584 47.9048" stroke="black" stroke-width="1.5" stroke-miterlimit="10"/>
<path d="M43.1577 21.9147C45.4823 21.2727 46.7581 18.5482 46.0072 15.8295C45.2563 13.1107 42.763 11.4272 40.4384 12.0693C38.1138 12.7113 36.838 15.4358 37.5889 18.1545C38.3399 20.8733 40.8331 22.5568 43.1577 21.9147Z" stroke="black" stroke-width="1.5" stroke-miterlimit="10"/>
</svg>
