<svg width="24" height="24" viewBox="0 0 24 24" fill="none" xmlns="http://www.w3.org/2000/svg">
<g clip-path="url(#clip0_162_552)">
<path d="M1.5 12C1.5 7.05025 1.5 4.57538 3.03769 3.03769C4.57538 1.5 7.05025 1.5 12 1.5C16.9497 1.5 19.4246 1.5 20.9623 3.03769C22.5 4.57538 22.5 7.05025 22.5 12C22.5 16.9497 22.5 19.4246 20.9623 20.9623C19.4246 22.5 16.9497 22.5 12 22.5C7.05025 22.5 4.57538 22.5 3.03769 20.9623C1.5 19.4246 1.5 16.9497 1.5 12Z" stroke="black" stroke-opacity="0.6" stroke-width="1.5" stroke-linejoin="round"/>
<path d="M16.9737 12.0001C16.9737 14.7469 14.7469 16.9737 12 16.9737C9.2531 16.9737 7.02631 14.7469 7.02631 12.0001C7.02631 9.25316 9.2531 7.02637 12 7.02637C14.7469 7.02637 16.9737 9.25316 16.9737 12.0001Z" stroke="black" stroke-opacity="0.6" stroke-width="1.5"/>
<path d="M18.0876 5.9209L18.0777 5.9209" stroke="black" stroke-opacity="0.6" stroke-width="2" stroke-linecap="round" stroke-linejoin="round"/>
</g>
<defs>
<clipPath id="clip0_162_552">
<rect width="24" height="24" fill="white"/>
</clipPath>
</defs>
</svg>
