<svg width="34" height="34" viewBox="0 0 34 34" fill="none" xmlns="http://www.w3.org/2000/svg">
<path d="M1 17C1 9.45753 1 5.68629 3.34315 3.34315C5.68629 1 9.45753 1 17 1C24.5425 1 28.3137 1 30.6569 3.34315C33 5.68629 33 9.45753 33 17C33 24.5425 33 28.3137 30.6569 30.6569C28.3137 33 24.5425 33 17 33C9.45753 33 5.68629 33 3.34315 30.6569C1 28.3137 1 24.5425 1 17Z" stroke="black" stroke-width="2"/>
<path d="M6.05261 17.8421L6.85184 17.3093C7.65006 16.7771 8.04917 16.511 8.43228 16.63C8.81539 16.749 8.99353 17.1944 9.34982 18.0851L11.9473 24.5789L15.4645 14.0275C16.2056 11.8043 16.5761 10.6927 17.4583 10.0568C18.3404 9.42102 19.5121 9.42102 21.8556 9.42102H27.9473" stroke="black" stroke-width="2" stroke-linecap="round" stroke-linejoin="round"/>
<path d="M25.421 16.9999L22.8947 19.5263M22.8947 19.5263L20.3684 22.0526M22.8947 19.5263L25.421 22.0526M22.8947 19.5263L20.3684 16.9999" stroke="black" stroke-width="2" stroke-linecap="round" stroke-linejoin="round"/>
</svg>
