<svg width="65" height="64" viewBox="0 0 65 64" fill="none" xmlns="http://www.w3.org/2000/svg">
<g clip-path="url(#clip0_136_438)">
<ellipse cx="50" cy="48.5" rx="15" ry="15.5" fill="#CFFFC2"/>
<ellipse cx="9.22581" cy="26.5" rx="8.22581" ry="8.5" fill="#CFFFC2"/>
<path d="M45.8334 18.6666V29.3333C45.8334 36.697 39.8639 42.6666 32.5001 42.6666C25.1363 42.6666 19.1667 36.697 19.1667 29.3333V18.6666C19.1667 11.3028 25.1363 5.33325 32.5001 5.33325C39.8639 5.33325 45.8334 11.3028 45.8334 18.6666Z" stroke="black" stroke-width="1.5"/>
<path d="M17.5001 7H14.5001M17.5001 11H14.5001" stroke="black" stroke-width="1.5" stroke-linecap="round"/>
<path d="M53.8334 29.3333C53.8334 41.1153 44.2822 50.6666 32.5001 50.6666M32.5001 50.6666C20.718 50.6666 11.1667 41.1153 11.1667 29.3333M32.5001 50.6666V58.6666M32.5001 58.6666H40.5001M32.5001 58.6666H24.5001" stroke="black" stroke-width="1.5" stroke-linecap="round"/>
</g>
<defs>
<clipPath id="clip0_136_438">
<rect width="64" height="64" fill="white" transform="translate(0.5)"/>
</clipPath>
</defs>
</svg>
