<svg width="64" height="64" viewBox="0 0 64 64" fill="none" xmlns="http://www.w3.org/2000/svg">
<g clip-path="url(#clip0_136_426)">
<ellipse cx="15" cy="15.5" rx="15" ry="15.5" transform="matrix(-1 0 0 1 31 33)" fill="#CFFFC2"/>
<ellipse cx="8.22581" cy="8.5" rx="8.22581" ry="8.5" transform="matrix(-1 0 0 1 65.4516 18)" fill="#CFFFC2"/>
<path d="M20 32H36M20 21.3333H28" stroke="black" stroke-width="1.5" stroke-linecap="round" stroke-linejoin="round"/>
<path d="M22.6667 53.3333C25.4677 55.6524 28.8387 57.13 32.7027 57.3835C35.7472 57.5832 38.9258 57.5828 41.964 57.3835C43.0102 57.3149 44.1506 57.0685 45.1328 56.6693C46.2255 56.2252 46.7721 56.003 47.0498 56.0367C47.3275 56.0704 47.7304 56.3636 48.5362 56.95C49.957 57.9839 51.7469 58.7265 54.4013 58.6628C55.7435 58.6305 56.4146 58.6144 56.715 58.1089C57.0155 57.6034 56.6413 56.9036 55.8929 55.5041C54.855 53.5631 54.1974 51.3409 55.1938 49.5605C56.9101 47.0173 58.3678 44.0055 58.5809 40.7526C58.6953 39.0049 58.6953 37.1949 58.5809 35.4471C58.4389 33.2797 57.9128 31.2193 57.0698 29.3333" stroke="black" stroke-width="1.5" stroke-linecap="round" stroke-linejoin="round"/>
<path d="M32.9201 46.6313C42.4016 46.0069 49.954 38.4184 50.5755 28.8917C50.6971 27.0274 50.6971 25.0967 50.5755 23.2324C49.954 13.7057 42.4016 6.11727 32.9201 5.49286C29.6854 5.27983 26.3081 5.28027 23.08 5.49286C13.5985 6.11727 6.04603 13.7057 5.42458 23.2324C5.30297 25.0967 5.30297 27.0274 5.42458 28.8917C5.65092 32.3614 7.19982 35.5741 9.0233 38.2868C10.0821 40.1859 9.38333 42.5562 8.28052 44.6266C7.48537 46.1194 7.08779 46.8658 7.40702 47.4051C7.72624 47.9443 8.43929 47.9615 9.8654 47.9959C12.6857 48.0639 14.5875 47.2718 16.097 46.1689C16.9532 45.5434 17.3813 45.2307 17.6764 45.1947C17.9714 45.1588 18.552 45.3957 19.7131 45.8695C20.7567 46.2953 21.9684 46.5581 23.08 46.6313C26.3081 46.8439 29.6854 46.8443 32.9201 46.6313Z" stroke="black" stroke-width="1.5" stroke-linejoin="round"/>
</g>
<defs>
<clipPath id="clip0_136_426">
<rect width="64" height="64" fill="white"/>
</clipPath>
</defs>
</svg>
