<svg width="48" height="45" viewBox="0 0 48 45" fill="none" xmlns="http://www.w3.org/2000/svg">
<path d="M26.1903 11.2689C19.3136 11.2689 14.3269 16.232 14.3269 22.9601C14.3269 28.3456 19.5242 31.946 25.0245 31.946C29.4257 31.946 32.6868 27.5109 32.6868 23.2015C32.6868 20.2045 29.8828 17.816 26.8322 17.2427C24.4647 16.8002 22.0098 17.9216 20.9005 20.0184C19.2879 23.0607 21.4963 26.0979 24.4339 26.0979C26.2365 26.0979 27.695 24.6698 27.695 22.9048" stroke="black" stroke-width="2" stroke-miterlimit="10"/>
<path d="M23.0884 0C23.0884 1.82032 23.0884 3.6356 23.0935 5.45592" stroke="black" stroke-width="2" stroke-miterlimit="10"/>
<path d="M11.5074 2.474C12.4884 3.99763 13.459 5.56149 14.4296 7.16056" stroke="black" stroke-width="2" stroke-miterlimit="10"/>
<path d="M3.49072 11.7264C5.14954 12.1689 6.80322 12.7875 8.44662 13.5367" stroke="black" stroke-width="2" stroke-miterlimit="10"/>
<path d="M1.17456 23.297C3.03367 22.6433 4.88763 22.231 6.74674 21.9946" stroke="black" stroke-width="2" stroke-miterlimit="10"/>
<path d="M4.94409 32.9417C6.50533 31.7851 8.0717 30.7693 9.64321 29.8592" stroke="black" stroke-width="2" stroke-miterlimit="10"/>
<path d="M13.5874 40.3587C14.4707 38.9105 15.3592 37.4774 16.2528 36.0593" stroke="black" stroke-width="2" stroke-miterlimit="10"/>
<path d="M24.8088 45C24.8088 43.1746 24.8088 41.3493 24.814 39.529" stroke="black" stroke-width="2" stroke-miterlimit="10"/>
<path d="M35.8197 43.3758C34.9415 41.7013 34.053 40.0017 33.1594 38.287" stroke="black" stroke-width="2" stroke-miterlimit="10"/>
<path d="M43.8877 34.1033C42.3265 33.4948 40.755 32.7456 39.1783 31.8807" stroke="black" stroke-width="2" stroke-miterlimit="10"/>
<path d="M46.8254 21.5471C44.9611 22.2109 43.102 22.6333 41.2378 22.8696" stroke="black" stroke-width="2" stroke-miterlimit="10"/>
<path d="M43.6207 11.0023C41.9619 12.3248 40.3082 13.4864 38.6597 14.5172" stroke="black" stroke-width="2" stroke-miterlimit="10"/>
<path d="M34.9261 3.71606C33.9503 5.3101 32.9797 6.86893 32.0142 8.39257" stroke="black" stroke-width="2" stroke-miterlimit="10"/>
</svg>
